<svg version="1.2" xmlns="http://www.w3.org/2000/svg" viewBox="0 0 173 173" width="300" height="300">
	<title>13226-NOY9SF</title>
	<defs>
		<clipPath clipPathUnits="userSpaceOnUse" id="cp1">
			<path d="m169.21 86.68c0 45.84-37.16 83-83 83-45.84 0-83-37.16-83-83 0-45.84 37.16-83 83-83 45.84 0 83 37.16 83 83z"/>
		</clipPath>
		<clipPath clipPathUnits="userSpaceOnUse" id="cp2">
			<path d="m633.2 86.68c0 45.84-37.16 83-83 83-45.84 0-83-37.16-83-83 0-45.84 37.16-83 83-83 45.84 0 83 37.16 83 83z"/>
		</clipPath>
		<clipPath clipPathUnits="userSpaceOnUse" id="cp3">
			<path d="m633.21 310.68c0 45.84-37.16 83-83 83-45.84 0-83-37.16-83-83 0-45.84 37.16-83 83-83 45.84 0 83 37.16 83 83z"/>
		</clipPath>
		<clipPath clipPathUnits="userSpaceOnUse" id="cp4">
			<path d="m168.79 310.68c0 45.84-37.16 83-83 83-45.84 0-83-37.16-83-83 0-45.84 37.16-83 83-83 45.84 0 83 37.16 83 83z"/>
		</clipPath>
		<clipPath clipPathUnits="userSpaceOnUse" id="cp5">
			<path d="m401.42 310.68c0 45.84-37.16 83-82.99 83-45.84 0-83-37.16-83-83 0-45.84 37.16-83 83-83 45.83 0 82.99 37.16 82.99 83z"/>
		</clipPath>
		<clipPath clipPathUnits="userSpaceOnUse" id="cp6">
			<path d="m169.21 534.68c0 45.84-37.16 83-83 83-45.84 0-83-37.16-83-83 0-45.84 37.16-83 83-83 45.84 0 83 37.16 83 83z"/>
		</clipPath>
		<clipPath clipPathUnits="userSpaceOnUse" id="cp7">
			<path d="m401.21 86.68c0 45.84-37.16 83-83 83-45.84 0-83-37.16-83-83 0-45.84 37.16-83 83-83 45.84 0 83 37.16 83 83z"/>
		</clipPath>
		<clipPath clipPathUnits="userSpaceOnUse" id="cp8">
			<path d="m401.41 534.68c0 45.84-37.16 83-83 83-45.84 0-83-37.16-83-83 0-45.84 37.16-83 83-83 45.84 0 83 37.16 83 83z"/>
		</clipPath>
		<clipPath clipPathUnits="userSpaceOnUse" id="cp9">
			<path d="m633.21 534.68c0 45.84-37.16 83-83 83-45.84 0-83-37.16-83-83 0-45.84 37.16-83 83-83 45.84 0 83 37.16 83 83z"/>
		</clipPath>
	</defs>
	<style>
		.s0 { fill: #312031 } 
		.s1 { opacity: .4;mix-blend-mode: multiply;fill: #050505 } 
		.s2 { fill: #f9f5b3 } 
		.s3 { opacity: .1;mix-blend-mode: multiply;fill: #221e1f } 
		.s4 { fill: #faae36 } 
		.s5 { fill: #fefefe } 
	</style>
	<g id="objects">
		<g id="&lt;Group&gt;">
			<g id="&lt;Group&gt;">
				<g id="&lt;Group&gt;">
					<path id="&lt;Path&gt;" class="s0" d="m168.2 86.7c0 45.8-37.2 83-83 83-45.8 0-83-37.2-83-83 0-45.9 37.2-83 83-83 45.8 0 83 37.1 83 83z"/>
					<g id="&lt;Clip Group&gt;" clip-path="url(#cp1)">
						<path id="&lt;Path&gt;" class="s1" d="m49.8 132.9l121.4 103.8 64.2-85.4-105.5-92.3-50 36.1z"/>
					</g>
					<g id="&lt;Group&gt;">
						<path id="&lt;Path&gt;" class="s2" d="m82.1 34.6c-11.3-3.1-25.6-1.9-35.1 13.6-7.5 13 5.5 21.5 3 33.5-2.5 13-12 21.5-7.5 36 6 18.5 26.1 24.1 44.5 22 20-2.3 25.5-21.5 29.5-27.5 6.5-10.5 23.5-9.5 24-25 0.8-28.7-29.5-34-34-37-5.5-4.5-17.4-13.6-24.4-15.6z"/>
						<g id="&lt;Group&gt;">
							<path id="&lt;Path&gt;" class="s2" d="m82.8 32.2c-9.3-2.4-18.7-1.8-27 3.2-8.9 5.4-15.3 15.5-13.1 26 1 4.7 3.5 9 4.7 13.7 1.6 6.2-1.8 12.9-4.2 18.5-4.5 10.3-6.1 19.8-0.8 30.3 8.9 17.6 36.4 23.4 53.5 16 8.3-3.5 13.9-10.3 18.2-18 1.5-2.6 2.7-5.4 4.2-8 2.4-4 6.6-6.2 10.5-8.4 3.9-2.1 7.9-4.3 10.6-7.9 3.5-4.6 3.9-10 3.4-15.6-1-9.8-6.4-17.9-14.2-23.8-5.9-4.4-12.8-6.8-19.5-9.5-3.6-1.4-6.9-5.1-10.1-7.4-5-3.6-10.3-7.2-16.2-9.1-3.1-0.9-4.4 3.9-1.4 4.8 5.1 1.6 9.6 4.8 13.9 7.8 3.6 2.5 6.9 6.1 10.7 8 5.1 2.5 10.5 4 15.5 6.8 7.7 4.3 13.6 10.8 15.8 19.5 1.2 5 1.3 10.8-1.6 15.2-2.4 3.8-7.4 5.8-11.2 7.9-7 3.8-10.3 8.8-13.9 15.6-4.5 8.7-10.5 16-20.2 18.7-22.7 6.4-54.2-9.2-44.6-36.1 2.5-7.1 6.3-13.5 7-21.2 0.5-6.7-3.6-12.9-5.3-19.1-2.3-9.1 5.6-17.6 13-21.7 6.4-3.4 14.1-3.1 20.9-1.4 3.2 0.9 4.5-4 1.4-4.8z"/>
						</g>
					</g>
					<path id="&lt;Path&gt;" class="s3" d="m85.8 33.1q-1.5-0.6-3-1.1c-9.3-2.5-18.7-1.9-27 3.1-8.9 5.5-15.3 15.6-13.1 26.1 1 4.7 3.5 8.9 4.7 13.6 1.6 6.2-1.8 12.9-4.2 18.5-4.5 10.4-6.1 19.9-0.8 30.3 7.3 14.5 27 21 43.4 18.8z"/>
					<path id="&lt;Path&gt;" class="s4" d="m108.6 84.4c0 12.6-10.2 22.8-22.8 22.8-12.6 0-22.8-10.2-22.8-22.8 0-12.6 10.2-22.9 22.8-22.9 12.6 0 22.8 10.3 22.8 22.9z"/>
					<path id="&lt;Path&gt;" class="s5" d="m80.3 76.5c0 2.3-1.9 4.2-4.3 4.2-2.4 0-4.4-1.9-4.4-4.2 0-2.4 2-4.3 4.4-4.3 2.4 0 4.3 1.9 4.3 4.3z"/>
					<path id="&lt;Path&gt;" class="s3" d="m85.8 103.5c-12 0-21.8-9.2-22.8-21q0 0.9 0 1.9c0 12.6 10.2 22.8 22.8 22.8 12.6 0 22.8-10.2 22.8-22.8q0-1-0.1-1.9c-0.9 11.8-10.7 21-22.7 21z"/>
				</g>
				<g id="&lt;Group&gt;">
					<g id="&lt;Clip Group&gt;" clip-path="url(#cp2)">
					</g>
					<g id="&lt;Group&gt;">
						<g id="&lt;Group&gt;">
						</g>
						<g id="&lt;Group&gt;" style="opacity: .2;mix-blend-mode: multiply">
						</g>
					</g>
				</g>
				<g id="&lt;Group&gt;">
					<g id="&lt;Clip Group&gt;" clip-path="url(#cp3)">
					</g>
					<g id="&lt;Group&gt;">
						<g id="&lt;Group&gt;">
						</g>
					</g>
				</g>
				<g id="&lt;Group&gt;">
					<g id="&lt;Clip Group&gt;" clip-path="url(#cp4)">
					</g>
					<g id="&lt;Group&gt;">
					</g>
				</g>
				<g id="&lt;Group&gt;">
					<g id="&lt;Clip Group&gt;" clip-path="url(#cp5)">
					</g>
					<g id="&lt;Group&gt;">
						<g id="&lt;Group&gt;">
						</g>
						<g id="&lt;Group&gt;">
						</g>
						<g id="&lt;Group&gt;">
						</g>
						<g id="&lt;Group&gt;">
						</g>
						<g id="&lt;Group&gt;">
						</g>
						<g id="&lt;Group&gt;">
						</g>
						<g id="&lt;Group&gt;">
						</g>
					</g>
					<g id="&lt;Group&gt;" style="opacity: .15;mix-blend-mode: multiply">
					</g>
				</g>
				<g id="&lt;Group&gt;">
					<g id="&lt;Clip Group&gt;" clip-path="url(#cp6)">
					</g>
					<g id="&lt;Group&gt;">
					</g>
				</g>
				<g id="&lt;Group&gt;">
					<g id="&lt;Clip Group&gt;" clip-path="url(#cp7)">
					</g>
					<g id="&lt;Group&gt;">
					</g>
				</g>
				<g id="&lt;Group&gt;">
					<g id="&lt;Clip Group&gt;" clip-path="url(#cp8)">
					</g>
					<g id="&lt;Group&gt;">
						<g id="&lt;Group&gt;">
						</g>
						<g id="&lt;Group&gt;">
						</g>
					</g>
				</g>
				<g id="&lt;Group&gt;">
					<g id="&lt;Clip Group&gt;" clip-path="url(#cp9)">
					</g>
					<g id="&lt;Group&gt;">
						<g id="&lt;Group&gt;">
						</g>
						<g id="&lt;Group&gt;">
						</g>
						<g id="&lt;Group&gt;">
						</g>
						<g id="&lt;Group&gt;">
						</g>
						<g id="&lt;Group&gt;">
						</g>
						<g id="&lt;Group&gt;">
						</g>
					</g>
				</g>
			</g>
			<g id="&lt;Group&gt;">
				<g id="&lt;Group&gt;">
				</g>
				<g id="&lt;Group&gt;">
				</g>
				<g id="&lt;Group&gt;">
				</g>
			</g>
		</g>
	</g>
</svg>