<?xml version="1.0" encoding="UTF-8"?>
<!DOCTYPE svg PUBLIC "-//W3C//DTD SVG 1.1//EN" "http://www.w3.org/Graphics/SVG/1.1/DTD/svg11.dtd">
<svg xmlns="http://www.w3.org/2000/svg" version="1.1" width="240px" height="240px" style="shape-rendering:geometricPrecision; text-rendering:geometricPrecision; image-rendering:optimizeQuality; fill-rule:evenodd; clip-rule:evenodd" xmlns:xlink="http://www.w3.org/1999/xlink">
<g><path style="opacity:1" fill="#fefbf8" d="M 42.5,43.5 C 35.77,37.4419 34.77,30.4419 39.5,22.5C 39.1924,21.6919 38.6924,21.0253 38,20.5C 31.5215,24.1278 29.5215,29.4611 32,36.5C 22.6967,42.3989 17.8633,39.7322 17.5,28.5C 19.7469,12.7515 28.7469,5.91818 44.5,8C 53.634,12.9883 55.9673,20.3217 51.5,30C 52.9944,32.6388 53.6611,35.4721 53.5,38.5C 63.2736,36.7739 67.1069,40.7739 65,50.5C 64.1667,52.6667 62.6667,54.1667 60.5,55C 56.9085,55.7886 53.4085,55.6219 50,54.5C 50.2968,60.3353 49.1301,66.0019 46.5,71.5C 47.327,74.7831 47.6604,78.1165 47.5,81.5C 57.6028,79.4431 62.1028,83.4431 61,93.5C 57.8796,100.974 52.3796,103.474 44.5,101C 39.4155,96.9185 38.0822,91.7518 40.5,85.5C 38.8008,85.6602 37.1341,85.4935 35.5,85C 29.8294,80.4703 27.996,74.637 30,67.5C 31.4445,64.9454 32.6112,62.2787 33.5,59.5C 33.1322,58.09 32.2989,57.09 31,56.5C 23.7962,60.2401 20.7962,66.2401 22,74.5C 17.2551,79.7434 12.5884,79.7434 8,74.5C 4.2847,61.0979 8.45136,50.9312 20.5,44C 27.8143,40.9434 35.1476,40.7767 42.5,43.5 Z M 42.5,43.5 C 44.1667,43.5 45.8333,43.5 47.5,43.5C 47.6602,45.1992 47.4935,46.8659 47,48.5C 45.2927,46.9625 43.7927,45.2959 42.5,43.5 Z"/></g>
<g><path style="opacity:1" fill="#fffaf5" d="M 165.5,7.5 C 179.662,5.51568 187.496,11.5157 189,25.5C 204.637,17.0276 217.637,20.0276 228,34.5C 229.964,41.8589 229.964,49.1922 228,56.5C 223.073,62.8098 216.573,65.3098 208.5,64C 205.709,65.7886 202.709,67.1219 199.5,68C 203.19,79.6541 198.857,84.6541 186.5,83C 179.586,79.2303 177.753,73.7303 181,66.5C 183.523,63.7124 186.69,62.379 190.5,62.5C 189.64,56.9989 190.973,52.1655 194.5,48C 187.247,47.4201 184.914,43.7535 187.5,37C 186.751,35.2663 186.251,33.433 186,31.5C 183.984,33.684 181.817,35.684 179.5,37.5C 178.971,40.2572 177.971,42.7572 176.5,45C 179.034,45.5163 181.2,46.683 183,48.5C 185.336,59.1618 181.169,63.6618 170.5,62C 167.629,60.6294 165.629,58.4628 164.5,55.5C 160.746,57.8098 156.746,59.6431 152.5,61C 151.896,63.4675 150.562,65.4675 148.5,67C 154.052,72.4375 153.719,77.4375 147.5,82C 136.839,84.3361 132.339,80.1694 134,69.5C 135.543,67.6217 137.376,66.1217 139.5,65C 137.255,58.7326 138.589,53.3993 143.5,49C 147.175,48.4434 150.508,47.1101 153.5,45C 148.34,41.3558 143.673,42.0225 139.5,47C 131.225,49.0571 127.725,45.8905 129,37.5C 133.731,29.9701 140.565,26.9701 149.5,28.5C 149.551,17.4516 154.884,10.4516 165.5,7.5 Z M 167.5,21.5 C 170.073,21.1485 172.406,21.6485 174.5,23C 171.948,25.8529 169.115,28.3529 166,30.5C 165.138,32.087 164.471,33.7536 164,35.5C 162.647,34.3147 161.48,32.9814 160.5,31.5C 162.856,28.1002 165.189,24.7669 167.5,21.5 Z"/></g>
<g><path style="opacity:1" fill="#fefbf7" d="M 78.5,8.5 C 94.9693,5.48718 102.803,12.1538 102,28.5C 99.7046,31.7974 97.038,34.7974 94,37.5C 93.7744,40.095 93.2744,42.595 92.5,45C 94.4211,45.3603 96.0878,46.1936 97.5,47.5C 105.315,40.8803 113.982,39.7136 123.5,44C 129.957,49.5278 131.124,56.0278 127,63.5C 124.079,65.7121 120.912,67.5455 117.5,69C 116.624,70.586 115.624,72.086 114.5,73.5C 118.67,77.9995 118.336,82.1661 113.5,86C 104.339,88.1622 100.173,84.6622 101,75.5C 102.319,73.5125 104.152,72.3459 106.5,72C 104.007,68.6916 103.841,65.1916 106,61.5C 109.158,58.7807 112.658,56.614 116.5,55C 114.635,53.6986 112.635,53.3653 110.5,54C 107.513,58.1854 103.68,59.3521 99,57.5C 97.0633,61.3861 93.8966,63.0528 89.5,62.5C 82.0529,61.9741 79.2195,57.9741 81,50.5C 81.956,49.4214 82.7894,48.2547 83.5,47C 79.6951,42.9089 78.5284,38.0755 80,32.5C 83.1306,29.6647 85.9639,26.4981 88.5,23C 85.7538,21.0714 83.0871,21.238 80.5,23.5C 78.625,26.7511 76.625,29.9177 74.5,33C 65.6667,34.8333 62.1667,31.3333 64,22.5C 66.7486,15.5832 71.5819,10.9166 78.5,8.5 Z"/></g>
<g><path style="opacity:1" fill="#ffd18a" d="M 35.5,9.5 C 49.1339,10.5015 53.4672,17.5015 48.5,30.5C 49.1667,32.5 49.8333,34.5 50.5,36.5C 49.5139,40.1471 47.1806,41.3138 43.5,40C 39.9651,37.2929 38.7984,33.7929 40,29.5C 42.6447,25.9891 42.8114,22.4891 40.5,19C 36.4179,17.7069 33.2513,18.8735 31,22.5C 29.7964,26.7159 29.1298,31.0492 29,35.5C 25.5118,38.4615 22.8451,37.7948 21,33.5C 19.0294,21.3189 23.8627,13.3189 35.5,9.5 Z"/></g>
<g><path style="opacity:1" fill="#ffd189" d="M 164.5,10.5 C 173.366,8.43477 180.199,11.1014 185,18.5C 186.923,26.3205 184.257,31.9872 177,35.5C 177.508,42.1707 174.675,44.5041 168.5,42.5C 167.415,39.227 167.248,35.8936 168,32.5C 170.963,30.5394 173.629,28.206 176,25.5C 176.896,22.975 176.396,20.8083 174.5,19C 171.833,18.3333 169.167,18.3333 166.5,19C 163.123,21.7464 160.457,25.0797 158.5,29C 152.96,29.4435 151.127,26.9435 153,21.5C 155.437,16.2262 159.271,12.5595 164.5,10.5 Z"/></g>
<g><path style="opacity:1" fill="#ee8e28" d="M 78.5,11.5 C 83.1785,11.3342 87.8452,11.5008 92.5,12C 98.7603,15.7649 100.927,21.2649 99,28.5C 96.3333,31.1667 93.6667,33.8333 91,36.5C 90.4054,37.8989 90.5721,39.2322 91.5,40.5C 90.4612,44.1493 88.1279,45.316 84.5,44C 81.6509,40.4472 81.1509,36.6139 83,32.5C 85.6277,30.8745 87.961,28.8745 90,26.5C 90.7581,24.2305 90.5914,22.0639 89.5,20C 85.7054,19.1628 82.0387,19.4961 78.5,21C 76.4599,23.781 74.7933,26.781 73.5,30C 67.3242,31.1875 65.1575,28.6875 67,22.5C 69.4373,17.2262 73.2706,13.5595 78.5,11.5 Z"/></g>
<g><path style="opacity:1" fill="#ee8d26" d="M 197.5,23.5 C 210.178,21.9229 219.678,26.5895 226,37.5C 227.816,53.3465 220.649,60.1798 204.5,58C 201.942,62.8424 198.442,63.6758 194,60.5C 192.881,54.5709 195.047,50.4042 200.5,48C 204.833,47.6667 209.167,47.3333 213.5,47C 216.778,44.712 217.278,41.8787 215,38.5C 213.167,37.3333 211.333,36.1667 209.5,35C 203.279,34.4775 197.279,35.1441 191.5,37C 189.522,34.5027 189.022,31.6693 190,28.5C 192.479,26.6859 194.979,25.0192 197.5,23.5 Z"/></g>
<g><path style="opacity:1" fill="#ee8e28" d="M 139.5,31.5 C 145.262,31.1493 150.928,31.6493 156.5,33C 165.079,38.1174 166.746,44.9507 161.5,53.5C 157.822,55.9479 153.822,57.6146 149.5,58.5C 149.631,63.7083 147.298,65.3749 142.5,63.5C 140.169,59.289 140.836,55.4557 144.5,52C 148.298,51.0716 151.798,49.5716 155,47.5C 155.896,44.975 155.396,42.8083 153.5,41C 150.298,39.5167 146.964,39.1834 143.5,40C 140.926,42.2426 138.092,44.076 135,45.5C 131.169,43.3622 130.503,40.3622 133,36.5C 135.352,34.9697 137.519,33.3031 139.5,31.5 Z"/></g>
<g><path style="opacity:1" fill="#ee8d26" d="M 203.5,36.5 C 206.745,36.8801 209.745,38.0468 212.5,40C 213.849,41.6354 213.682,43.1354 212,44.5C 210.093,43.0702 207.926,42.4035 205.5,42.5C 201.645,43.3394 197.812,44.3394 194,45.5C 190.076,45.1049 188.909,43.1049 190.5,39.5C 195.48,41.1701 199.813,40.1701 203.5,36.5 Z"/></g>
<g><path style="opacity:1" fill="#ffd18a" d="M 53.5,40.5 C 60.6647,39.4966 63.498,42.4966 62,49.5C 57.951,54.8184 53.951,54.8184 50,49.5C 49.4807,45.8679 50.6474,42.8679 53.5,40.5 Z"/></g>
<g><path style="opacity:1" fill="#ee8d25" d="M 26.5,44.5 C 38.3677,42.0531 45.3677,46.7197 47.5,58.5C 46.1667,62.8333 44.8333,67.1667 43.5,71.5C 46.2323,75.3849 45.899,78.8849 42.5,82C 36.5851,83.1059 33.0851,80.6059 32,74.5C 31.3333,73.1667 31.3333,71.8333 32,70.5C 34.0651,67.0403 35.5651,63.3736 36.5,59.5C 36.6102,57.626 35.9436,56.126 34.5,55C 29.2767,53.555 25.11,55.055 22,59.5C 21.0944,64.5783 19.9277,69.5783 18.5,74.5C 15.0973,76.1865 12.264,75.5199 10,72.5C 7.80604,58.5467 13.306,49.2134 26.5,44.5 Z"/></g>
<g><path style="opacity:1" fill="#ffd28c" d="M 108.5,43.5 C 115.96,42.8161 121.793,45.4828 126,51.5C 126.701,54.9283 126.368,58.2617 125,61.5C 122.111,63.6345 118.944,65.3011 115.5,66.5C 114.506,70.5361 112.173,71.8695 108.5,70.5C 106.814,66.7795 107.481,63.6128 110.5,61C 113.244,60.1965 115.911,59.1965 118.5,58C 120.078,53.231 118.245,51.0644 113,51.5C 111.5,51.6667 110,51.8333 108.5,52C 103.046,57.4451 100.213,56.6117 100,49.5C 102.322,46.6047 105.155,44.6047 108.5,43.5 Z"/></g>
<g><path style="opacity:1" fill="#ffd18a" d="M 171.5,47.5 C 180.204,46.7912 182.87,50.2912 179.5,58C 173.525,61.1514 169.525,59.6514 167.5,53.5C 167.866,50.7441 169.2,48.7441 171.5,47.5 Z"/></g>
<g><path style="opacity:1" fill="#ee8f2a" d="M 86.5,48.5 C 95.9905,47.1377 98.6572,50.6377 94.5,59C 90.6722,61.0039 87.1722,60.5039 84,57.5C 82.9271,53.9003 83.7605,50.9003 86.5,48.5 Z"/></g>
<g><path style="opacity:1" fill="#ee8d26" d="M 186.5,65.5 C 196.639,65.3305 199.972,69.8305 196.5,79C 186.412,82.5729 181.912,79.0729 183,68.5C 184.145,67.3636 185.312,66.3636 186.5,65.5 Z"/></g>
<g><path style="opacity:1" fill="#ee8d27" d="M 138.5,68.5 C 147.676,67.1583 150.676,70.6583 147.5,79C 139.948,81.8216 136.115,79.3216 136,71.5C 137.045,70.6266 137.878,69.6266 138.5,68.5 Z"/></g>
<g><path style="opacity:1" fill="#ffd28c" d="M 105.5,74.5 C 111.337,73.5179 114.17,75.8513 114,81.5C 109.245,85.9304 105.745,85.2637 103.5,79.5C 103.437,77.4861 104.103,75.8194 105.5,74.5 Z"/></g>
<g><path style="opacity:1" fill="#fffdfb" d="M 211.5,78.5 C 223.587,77.9228 230.587,83.5895 232.5,95.5C 229.797,106.322 223.297,109.322 213,104.5C 211.644,105.38 210.144,105.714 208.5,105.5C 209.532,111.134 207.198,114.134 201.5,114.5C 196.543,114.378 194.21,111.878 194.5,107C 194.675,101.328 197.675,98.4943 203.5,98.5C 204.982,96.5171 206.649,94.6837 208.5,93C 212.603,92.7134 216.603,93.0468 220.5,94C 217.553,90.9858 213.887,89.6524 209.5,90C 206.414,85.4215 207.081,81.5881 211.5,78.5 Z"/></g>
<g><path style="opacity:1" fill="#ffd28c" d="M 211.5,81.5 C 221.655,80.4906 227.655,84.9906 229.5,95C 229.172,100.332 226.338,103.499 221,104.5C 216.371,102.614 211.704,101.947 207,102.5C 206.08,99.6917 206.913,97.5251 209.5,96C 213.088,95.634 216.588,96.134 220,97.5C 222.259,97.7394 223.426,96.7394 223.5,94.5C 222.935,92.5952 221.935,90.9285 220.5,89.5C 217.557,88.7565 214.557,88.2565 211.5,88C 208.939,85.8441 208.939,83.6774 211.5,81.5 Z"/></g>
<g><path style="opacity:1" fill="#ee8e28" d="M 47.5,83.5 C 57.1381,82.4549 60.3048,86.4549 57,95.5C 50.0607,101.786 45.2274,100.619 42.5,92C 42.5251,88.1054 44.1917,85.2721 47.5,83.5 Z"/></g>
<g><path style="opacity:1" fill="#fffdfa" d="M 45.5,124.5 C 44.8333,124.5 44.5,124.833 44.5,125.5C 43.8333,125.5 43.5,125.833 43.5,126.5C 42.8333,126.5 42.5,126.833 42.5,127.5C 33.4175,131.065 29.0842,128.065 29.5,118.5C 25.6702,117.515 22.8369,115.181 21,111.5C 20.9178,107.104 21.2512,102.77 22,98.5C 20,99.1667 18.6667,100.5 18,102.5C 17.6667,105.833 17.3333,109.167 17,112.5C 8.61175,116.553 4.44508,113.886 4.5,104.5C 6.82738,89.1639 15.494,83.6639 30.5,88C 32.3783,89.5429 33.8783,91.3762 35,93.5C 35.0047,99.8858 35.1714,106.219 35.5,112.5C 43.9451,112.006 47.2784,116.006 45.5,124.5 Z"/></g>
<g><path style="opacity:1" fill="#ffd28c" d="M 19.5,88.5 C 31.6444,89.2767 35.6444,95.4434 31.5,107C 31.4934,108.812 32.16,110.312 33.5,111.5C 30.4876,116.796 27.321,116.796 24,111.5C 24.1609,106.496 24.6609,101.496 25.5,96.5C 21.713,95.8144 18.5463,96.8144 16,99.5C 14.6463,103.363 14.1463,107.363 14.5,111.5C 12.2075,111.756 10.0408,111.423 8,110.5C 5.72537,100.051 9.5587,92.7178 19.5,88.5 Z"/></g>
<g><path style="opacity:1" fill="#f6f5f5" d="M 223.5,239.5 C 222.833,239.5 222.167,239.5 221.5,239.5C 221.133,218.697 219.3,198.03 216,177.5C 204.009,126.839 172.009,100.506 120,98.5C 73.1331,98.7412 41.7997,120.741 26,164.5C 17.9977,188.849 14.4977,213.849 15.5,239.5C 14.5,239.5 13.5,239.5 12.5,239.5C 11.5203,209.043 16.687,179.709 28,151.5C 32.1019,142.946 36.9352,134.946 42.5,127.5C 43.1667,127.5 43.5,127.167 43.5,126.5C 44.1667,126.5 44.5,126.167 44.5,125.5C 45.1667,125.5 45.5,125.167 45.5,124.5C 73.5573,99.7045 106.224,90.8711 143.5,98C 182.215,107.715 206.715,131.881 217,170.5C 222.043,193.218 224.209,216.218 223.5,239.5 Z"/></g>
<g><path style="opacity:1" fill="#271c17" d="M 221.5,239.5 C 219.167,239.5 216.833,239.5 214.5,239.5C 215.411,219.308 213.911,199.308 210,179.5C 199.22,132.051 169.553,107.051 121,104.5C 79.4794,104.074 50.4794,122.741 34,160.5C 25.0135,186.055 20.8468,212.388 21.5,239.5C 19.5,239.5 17.5,239.5 15.5,239.5C 14.4977,213.849 17.9977,188.849 26,164.5C 41.7997,120.741 73.1331,98.7412 120,98.5C 172.009,100.506 204.009,126.839 216,177.5C 219.3,198.03 221.133,218.697 221.5,239.5 Z"/></g>
<g><path style="opacity:1" fill="#ffd189" d="M 198.5,102.5 C 204.989,102.156 206.989,104.99 204.5,111C 197.188,111.871 195.188,109.038 198.5,102.5 Z"/></g>
<g><path style="opacity:1" fill="#f3b33d" d="M 214.5,239.5 C 166.167,239.5 117.833,239.5 69.5,239.5C 66.2274,236.051 63.0608,232.384 60,228.5C 54,215.167 48,201.833 42,188.5C 38.8412,185.659 36.5078,186.326 35,190.5C 30.1722,206.443 28.0056,222.776 28.5,239.5C 26.1667,239.5 23.8333,239.5 21.5,239.5C 20.8468,212.388 25.0135,186.055 34,160.5C 50.4794,122.741 79.4794,104.074 121,104.5C 169.553,107.051 199.22,132.051 210,179.5C 213.911,199.308 215.411,219.308 214.5,239.5 Z"/></g>
<g><path style="opacity:1" fill="#ffd38d" d="M 35.5,115.5 C 44.2369,116.212 45.5702,119.712 39.5,126C 34.1597,126.989 31.6597,124.822 32,119.5C 32.6897,117.65 33.8564,116.316 35.5,115.5 Z"/></g>
<g><path style="opacity:1" fill="#fefdfa" d="M 162.5,124.5 C 164.199,124.34 165.866,124.506 167.5,125C 179.103,131.936 187.936,141.436 194,153.5C 195.886,159.697 196.72,166.03 196.5,172.5C 194.097,172.607 192.264,171.607 191,169.5C 181.612,157.111 172.612,144.445 164,131.5C 163.023,129.26 162.523,126.927 162.5,124.5 Z"/></g>
<g><path style="opacity:1" fill="#251915" d="M 68.5,150.5 C 72.1817,150.335 75.8484,150.501 79.5,151C 81.4439,153.153 81.9439,155.653 81,158.5C 75.4043,164.642 68.571,166.642 60.5,164.5C 58.0466,162.004 57.8799,159.338 60,156.5C 62.6371,154.109 65.4704,152.109 68.5,150.5 Z"/></g>
<g><path style="opacity:1" fill="#271b16" d="M 130.5,151.5 C 138.966,149.657 145.466,152.323 150,159.5C 150.432,164.402 148.099,166.736 143,166.5C 137.407,165.86 133.074,163.194 130,158.5C 129.297,156.071 129.463,153.738 130.5,151.5 Z"/></g>
<g><path style="opacity:1" fill="#291d18" d="M 103.5,175.5 C 115.142,174.529 126.142,176.695 136.5,182C 138.96,183.458 141.127,185.291 143,187.5C 143.667,190.167 143.667,192.833 143,195.5C 141.933,196.191 140.766,196.691 139.5,197C 123.783,197.622 108.116,196.955 92.5,195C 83.9676,193.21 82.3009,188.876 87.5,182C 89.9962,180.92 92.3295,179.586 94.5,178C 97.7422,177.594 100.742,176.761 103.5,175.5 Z"/></g>
<g><path style="opacity:1" fill="#f7f6f6" d="M 103.5,180.5 C 115.373,179.386 126.373,181.886 136.5,188C 138.037,189.11 138.703,190.61 138.5,192.5C 122.069,192.653 105.735,191.653 89.5,189.5C 89.33,188.178 89.6634,187.011 90.5,186C 94.6045,183.404 98.9378,181.571 103.5,180.5 Z"/></g>
<g><path style="opacity:1" fill="#ee8c23" d="M 69.5,239.5 C 55.8333,239.5 42.1667,239.5 28.5,239.5C 28.0056,222.776 30.1722,206.443 35,190.5C 36.5078,186.326 38.8412,185.659 42,188.5C 48,201.833 54,215.167 60,228.5C 63.0608,232.384 66.2274,236.051 69.5,239.5 Z"/></g>
</svg>
